<mxfile host="app.diagrams.net" modified="2020-05-28T15:12:16.465Z" agent="5.0 (Windows NT 10.0; Win64; x64) AppleWebKit/537.36 (KHTML, like Gecko) Chrome/83.0.4103.61 Safari/537.36" etag="4ls3v8qG9awdDDEAmQhW" version="13.1.5" type="github">
  <diagram id="GbTZ_QaD-Nzlnn6_boQo" name="Page-1">
    <mxGraphModel dx="1303" dy="728" grid="1" gridSize="10" guides="1" tooltips="1" connect="1" arrows="1" fold="1" page="1" pageScale="1" pageWidth="1169" pageHeight="827" math="0" shadow="0">
      <root>
        <mxCell id="0" />
        <mxCell id="1" parent="0" />
        <mxCell id="WhjTUCaELtUEvIj31jTc-1" value="&lt;span style=&quot;font-family: &amp;#34;calibri&amp;#34;&quot;&gt;&lt;font style=&quot;font-size: 15px&quot;&gt;Отдыхающий&lt;br/&gt;насорил на пляже, поэтому был оштрафован&lt;/font&gt;&lt;/span&gt;" style="text;html=1;strokeColor=none;fillColor=none;align=center;verticalAlign=middle;whiteSpace=wrap;rounded=0;" vertex="1" parent="1">
          <mxGeometry width="310" height="80" as="geometry" />
        </mxCell>
        <mxCell id="WhjTUCaELtUEvIj31jTc-2" value="Отдыхающий" style="rounded=1;whiteSpace=wrap;html=1;" vertex="1" parent="1">
          <mxGeometry x="40" y="120" width="80" height="30" as="geometry" />
        </mxCell>
        <mxCell id="WhjTUCaELtUEvIj31jTc-5" value="Человек" style="ellipse;whiteSpace=wrap;html=1;aspect=fixed;" vertex="1" parent="1">
          <mxGeometry x="230" y="107.5" width="55" height="55" as="geometry" />
        </mxCell>
        <mxCell id="WhjTUCaELtUEvIj31jTc-7" value="Насорил" style="rounded=1;whiteSpace=wrap;html=1;" vertex="1" parent="1">
          <mxGeometry x="40" y="180" width="80" height="30" as="geometry" />
        </mxCell>
        <mxCell id="WhjTUCaELtUEvIj31jTc-10" style="rounded=0;orthogonalLoop=1;jettySize=auto;html=1;exitX=1;exitY=0.5;exitDx=0;exitDy=0;entryX=0;entryY=0.5;entryDx=0;entryDy=0;" edge="1" parent="1" source="WhjTUCaELtUEvIj31jTc-8" target="WhjTUCaELtUEvIj31jTc-9">
          <mxGeometry relative="1" as="geometry" />
        </mxCell>
        <mxCell id="WhjTUCaELtUEvIj31jTc-11" value="Сколько раз?" style="edgeLabel;html=1;align=center;verticalAlign=middle;resizable=0;points=[];" vertex="1" connectable="0" parent="WhjTUCaELtUEvIj31jTc-10">
          <mxGeometry x="-0.4378" y="4" relative="1" as="geometry">
            <mxPoint x="11.67" as="offset" />
          </mxGeometry>
        </mxCell>
        <mxCell id="WhjTUCaELtUEvIj31jTc-13" style="edgeStyle=none;rounded=0;orthogonalLoop=1;jettySize=auto;html=1;exitX=1;exitY=1;exitDx=0;exitDy=0;entryX=0;entryY=0;entryDx=0;entryDy=0;" edge="1" parent="1" source="WhjTUCaELtUEvIj31jTc-8" target="WhjTUCaELtUEvIj31jTc-12">
          <mxGeometry relative="1" as="geometry" />
        </mxCell>
        <mxCell id="WhjTUCaELtUEvIj31jTc-8" value="Сорить" style="ellipse;whiteSpace=wrap;html=1;aspect=fixed;" vertex="1" parent="1">
          <mxGeometry x="310" y="140" width="60" height="60" as="geometry" />
        </mxCell>
        <mxCell id="WhjTUCaELtUEvIj31jTc-9" value="Однократно" style="ellipse;whiteSpace=wrap;html=1;aspect=fixed;" vertex="1" parent="1">
          <mxGeometry x="450" y="140" width="75" height="75" as="geometry" />
        </mxCell>
        <mxCell id="WhjTUCaELtUEvIj31jTc-15" style="edgeStyle=none;rounded=0;orthogonalLoop=1;jettySize=auto;html=1;exitX=1;exitY=0.5;exitDx=0;exitDy=0;entryX=0;entryY=0.5;entryDx=0;entryDy=0;" edge="1" parent="1" source="WhjTUCaELtUEvIj31jTc-12" target="WhjTUCaELtUEvIj31jTc-14">
          <mxGeometry relative="1" as="geometry" />
        </mxCell>
        <mxCell id="WhjTUCaELtUEvIj31jTc-16" value="Объект" style="edgeLabel;html=1;align=center;verticalAlign=middle;resizable=0;points=[];" vertex="1" connectable="0" parent="WhjTUCaELtUEvIj31jTc-15">
          <mxGeometry x="-0.4659" y="3" relative="1" as="geometry">
            <mxPoint x="20" y="3" as="offset" />
          </mxGeometry>
        </mxCell>
        <mxCell id="WhjTUCaELtUEvIj31jTc-17" style="edgeStyle=none;rounded=0;orthogonalLoop=1;jettySize=auto;html=1;exitX=0;exitY=0.5;exitDx=0;exitDy=0;entryX=0.5;entryY=1;entryDx=0;entryDy=0;" edge="1" parent="1" source="WhjTUCaELtUEvIj31jTc-12" target="WhjTUCaELtUEvIj31jTc-5">
          <mxGeometry relative="1" as="geometry">
            <mxPoint x="190" y="240" as="targetPoint" />
          </mxGeometry>
        </mxCell>
        <mxCell id="WhjTUCaELtUEvIj31jTc-18" value="Субъект" style="edgeLabel;html=1;align=center;verticalAlign=middle;resizable=0;points=[];" vertex="1" connectable="0" parent="WhjTUCaELtUEvIj31jTc-17">
          <mxGeometry x="-0.2469" y="3" relative="1" as="geometry">
            <mxPoint x="1" as="offset" />
          </mxGeometry>
        </mxCell>
        <mxCell id="WhjTUCaELtUEvIj31jTc-12" value="Нарушить" style="ellipse;whiteSpace=wrap;html=1;aspect=fixed;" vertex="1" parent="1">
          <mxGeometry x="350" y="230" width="75" height="75" as="geometry" />
        </mxCell>
        <mxCell id="WhjTUCaELtUEvIj31jTc-14" value="Правила" style="ellipse;whiteSpace=wrap;html=1;aspect=fixed;" vertex="1" parent="1">
          <mxGeometry x="520" y="230" width="75" height="75" as="geometry" />
        </mxCell>
      </root>
    </mxGraphModel>
  </diagram>
</mxfile>
